<?xml version="1.0" standalone="no"?>
<!DOCTYPE svg PUBLIC "-//W3C//DTD SVG 20010904//EN"
 "http://www.w3.org/TR/2001/REC-SVG-20010904/DTD/svg10.dtd">
<svg version="1.0" xmlns="http://www.w3.org/2000/svg"
 width="421.000000pt" height="421.000000pt" viewBox="0 0 421.000000 421.000000"
 preserveAspectRatio="xMidYMid meet">
<metadata>
Created by potrace 1.11, written by Peter Selinger 2001-2013
</metadata>
<g transform="translate(0.000000,421.000000) scale(0.100000,-0.100000)"
fill="#000000" stroke="none">
<path d="M1950 3734 c-8 -1 -48 -8 -89 -14 -93 -15 -295 -80 -359 -115 -27
-14 -66 -43 -88 -63 -42 -39 -90 -102 -78 -102 3 0 2 -6 -4 -12 -5 -7 -12 -27
-15 -45 -7 -43 -14 -52 -37 -46 -40 11 -92 -8 -136 -49 -24 -22 -44 -47 -44
-54 0 -8 -4 -14 -10 -14 -5 0 -9 -3 -8 -7 1 -5 -3 -17 -9 -28 -6 -11 -12 -24
-13 -30 -1 -5 -7 -21 -12 -35 -28 -74 -30 -282 -3 -380 37 -140 43 -170 50
-250 11 -142 16 -175 37 -238 11 -35 17 -66 14 -69 -3 -4 -6 -2 -6 3 0 15 -43
15 -63 0 -45 -34 -43 -198 6 -392 l13 -51 -45 -1 c-93 0 -102 -2 -128 -28
l-26 -26 8 -181 c7 -191 8 -204 20 -437 5 -80 9 -157 9 -172 1 -19 -13 -42
-51 -81 -46 -48 -133 -187 -117 -187 4 0 2 -6 -4 -12 -8 -11 -28 -71 -38 -113
-1 -5 -7 -30 -14 -55 -12 -45 -17 -65 -26 -109 -3 -14 -7 -28 -9 -32 -9 -13
20 -16 174 -18 85 -1 158 -4 163 -7 11 -7 2165 -7 2177 0 4 3 85 6 180 7 197
2 181 -10 151 119 -56 234 -106 338 -211 437 -27 25 -35 40 -33 61 2 15 6 90
9 167 3 77 7 163 10 190 6 72 19 343 18 389 -2 63 -34 87 -117 88 l-68 1 6 31
c3 17 8 42 11 56 3 14 7 36 10 50 3 14 7 36 10 50 14 63 13 186 -2 223 -17 41
-53 58 -78 37 -20 -16 -20 -1 0 46 8 19 14 37 15 39 0 3 0 6 1 8 10 34 19 102
24 199 3 54 10 109 15 123 5 14 7 25 4 25 -2 0 2 13 10 29 8 15 18 41 21 57 3
16 9 43 12 59 11 47 7 188 -4 222 -10 28 -8 33 27 66 31 30 69 90 76 120 1 4
3 8 4 10 9 8 15 126 7 133 -10 10 -27 -7 -27 -26 0 -10 -13 -32 -29 -49 -53
-57 -141 -32 -221 61 -102 119 -254 260 -304 283 -11 5 -23 12 -26 15 -19 23
-203 93 -277 106 -13 2 -35 7 -50 10 -28 6 -385 13 -413 8z"/>
</g>
</svg>
